<svg width="60" height="58" viewBox="0 0 60 58" fill="none" xmlns="http://www.w3.org/2000/svg">
<path d="M8.12 25.048H3.458L3.472 33H1.218V23.2H8.134L8.12 25.048ZM14.6041 25.468V33H12.4201V27.26H10.0401L9.97008 28.59C9.93274 29.5793 9.83941 30.4007 9.69008 31.054C9.54074 31.7073 9.29808 32.2207 8.96208 32.594C8.62608 32.9673 8.15941 33.154 7.56208 33.154C7.24474 33.154 6.86674 33.098 6.42808 32.986L6.54008 31.194C6.68941 31.2127 6.79674 31.222 6.86208 31.222C7.18874 31.222 7.43141 31.1053 7.59008 30.872C7.75808 30.6293 7.87008 30.326 7.92608 29.962C7.98208 29.5887 8.02408 29.0987 8.05208 28.492L8.16408 25.468H14.6041ZM19.6303 25.356C20.797 25.356 21.693 25.636 22.3183 26.196C22.9436 26.7467 23.2563 27.582 23.2563 28.702V33H21.2123V32.062C20.8016 32.762 20.0363 33.112 18.9163 33.112C18.3376 33.112 17.8336 33.014 17.4043 32.818C16.9843 32.622 16.6623 32.3513 16.4383 32.006C16.2143 31.6607 16.1023 31.2687 16.1023 30.83C16.1023 30.13 16.3636 29.5793 16.8863 29.178C17.4183 28.7767 18.235 28.576 19.3363 28.576H21.0723C21.0723 28.1 20.9276 27.736 20.6383 27.484C20.349 27.2227 19.915 27.092 19.3363 27.092C18.935 27.092 18.5383 27.1573 18.1463 27.288C17.7636 27.4093 17.437 27.5773 17.1663 27.792L16.3823 26.266C16.793 25.9767 17.283 25.7527 17.8523 25.594C18.431 25.4353 19.0236 25.356 19.6303 25.356ZM19.4623 31.642C19.8356 31.642 20.167 31.558 20.4563 31.39C20.7456 31.2127 20.951 30.956 21.0723 30.62V29.85H19.5743C18.6783 29.85 18.2303 30.144 18.2303 30.732C18.2303 31.012 18.3376 31.236 18.5523 31.404C18.7763 31.5627 19.0796 31.642 19.4623 31.642ZM30.9075 29.066C31.7942 29.3647 32.2375 29.962 32.2375 30.858C32.2375 31.5393 31.9808 32.0667 31.4675 32.44C30.9542 32.8133 30.1888 33 29.1715 33H25.1535V25.468H29.0035C29.9462 25.468 30.6835 25.6407 31.2155 25.986C31.7475 26.322 32.0135 26.798 32.0135 27.414C32.0135 27.7873 31.9155 28.1187 31.7195 28.408C31.5328 28.688 31.2622 28.9073 30.9075 29.066ZM27.1555 28.562H28.8075C29.5728 28.562 29.9555 28.2913 29.9555 27.75C29.9555 27.218 29.5728 26.952 28.8075 26.952H27.1555V28.562ZM28.9895 31.516C29.7922 31.516 30.1935 31.2407 30.1935 30.69C30.1935 30.4007 30.1002 30.1907 29.9135 30.06C29.7268 29.92 29.4328 29.85 29.0315 29.85H27.1555V31.516H28.9895ZM33.8625 25.468H36.0325V28.408H39.3085V25.468H41.4925V33H39.3085V30.186H36.0325V33H33.8625V25.468ZM46.5092 25.356C47.6759 25.356 48.5719 25.636 49.1972 26.196C49.8225 26.7467 50.1352 27.582 50.1352 28.702V33H48.0912V32.062C47.6805 32.762 46.9152 33.112 45.7952 33.112C45.2165 33.112 44.7125 33.014 44.2832 32.818C43.8632 32.622 43.5412 32.3513 43.3172 32.006C43.0932 31.6607 42.9812 31.2687 42.9812 30.83C42.9812 30.13 43.2425 29.5793 43.7652 29.178C44.2972 28.7767 45.1139 28.576 46.2152 28.576H47.9512C47.9512 28.1 47.8065 27.736 47.5172 27.484C47.2279 27.2227 46.7939 27.092 46.2152 27.092C45.8139 27.092 45.4172 27.1573 45.0252 27.288C44.6425 27.4093 44.3159 27.5773 44.0452 27.792L43.2612 26.266C43.6719 25.9767 44.1619 25.7527 44.7312 25.594C45.3099 25.4353 45.9025 25.356 46.5092 25.356ZM46.3412 31.642C46.7145 31.642 47.0459 31.558 47.3352 31.39C47.6245 31.2127 47.8299 30.956 47.9512 30.62V29.85H46.4532C45.5572 29.85 45.1092 30.144 45.1092 30.732C45.1092 31.012 45.2165 31.236 45.4312 31.404C45.6552 31.5627 45.9585 31.642 46.3412 31.642ZM58.7244 25.468V33H56.7784V30.844H55.1684L53.7404 33H51.4164L53.1384 30.536C52.6158 30.3307 52.2144 30.0367 51.9344 29.654C51.6638 29.262 51.5284 28.7907 51.5284 28.24C51.5284 27.3533 51.8458 26.672 52.4804 26.196C53.1244 25.7107 54.0064 25.468 55.1264 25.468H58.7244ZM55.1684 27.246C54.7018 27.246 54.3471 27.33 54.1044 27.498C53.8711 27.666 53.7544 27.9367 53.7544 28.31C53.7544 28.6833 53.8664 28.9587 54.0904 29.136C54.3238 29.304 54.6738 29.388 55.1404 29.388H56.7784V27.246H55.1684Z" fill="#303030"/>
</svg>
