<svg width="33" height="51" viewBox="0 0 33 51" fill="none" xmlns="http://www.w3.org/2000/svg">
<path d="M22.7393 16.8106C22.7393 20.3233 19.9226 23.1463 16.478 23.1463C13.0335 23.1463 10.2168 20.3233 10.2168 16.8106C10.2168 13.298 13.0335 10.475 16.478 10.475C19.9226 10.475 22.7393 13.298 22.7393 16.8106Z" stroke="#303030" stroke-width="3"/>
<path d="M5.30811 37.6678C7.04303 33.1182 11.4072 29.9059 16.5001 29.9059C21.5929 29.9059 25.9571 33.1182 27.692 37.6678C27.9625 38.377 27.8002 39.018 27.3272 39.5479C26.8237 40.112 25.9672 40.5251 24.9899 40.5251H8.01025C7.03289 40.5251 6.17647 40.112 5.67294 39.5479C5.19995 39.018 5.03766 38.377 5.30811 37.6678Z" stroke="#303030" stroke-width="3"/>
</svg>
