<svg width="96" height="33" viewBox="0 0 96 33" fill="none" xmlns="http://www.w3.org/2000/svg">
<g clip-path="url(#clip0_83_1765)">
<path d="M88.3552 -1.48203e-05H7.64916C7.35497 -1.48203e-05 7.06432 -1.48203e-05 6.77091 0.00163518C6.52531 0.00328518 6.28166 0.00807843 6.03369 0.0121127C5.49499 0.0186317 4.95756 0.0673681 4.42607 0.157898C3.89532 0.2504 3.3812 0.424791 2.9011 0.675174C2.42158 0.927674 1.98343 1.25577 1.60254 1.64757C1.21966 2.03826 0.900491 2.48985 0.65732 2.98497C0.413478 3.4791 0.244397 4.00861 0.155916 4.55521C0.0665952 5.10111 0.0185306 5.65332 0.012154 6.20686C0.00470918 6.4598 0.00392298 6.71359 0 6.96657V26.0358C0.00392298 26.292 0.00470918 26.5402 0.012154 26.7964C0.0185325 27.3499 0.0665971 27.9021 0.155916 28.448C0.244152 28.9949 0.413243 29.5247 0.65732 30.019C0.900381 30.5125 1.21959 30.9623 1.60254 31.3508C1.98198 31.7444 2.42042 32.0727 2.9011 32.3232C3.3812 32.5743 3.89526 32.7497 4.42607 32.8437C4.95765 32.9335 5.49503 32.9822 6.03369 32.9895C6.28166 32.9951 6.52531 32.9983 6.77091 32.9983C7.06431 33 7.35499 33 7.64916 33H88.3552C88.6435 33 88.9365 33 89.2248 32.9983C89.4692 32.9983 89.7199 32.9951 89.9644 32.9895C90.502 32.9826 91.0384 32.9338 91.5689 32.8437C92.1014 32.7491 92.6173 32.5737 93.0997 32.3232C93.58 32.0725 94.018 31.7442 94.3971 31.3508C94.7791 30.9608 95.099 30.5113 95.345 30.019C95.5873 29.5243 95.7548 28.9946 95.8417 28.448C95.9312 27.902 95.9809 27.35 95.9906 26.7964C95.9937 26.5402 95.9937 26.292 95.9937 26.0358C96 25.7361 96 25.438 96 25.1334V7.86729C96 7.56517 96 7.26546 95.9937 6.96657C95.9937 6.71359 95.9937 6.4598 95.9906 6.20682C95.9809 5.65323 95.9312 5.10116 95.8417 4.55517C95.7545 4.00889 95.5871 3.47943 95.345 2.98493C94.8498 1.99252 94.0646 1.18471 93.0997 0.675099C92.6173 0.425328 92.1013 0.250984 91.5689 0.157824C91.0385 0.066895 90.5021 0.0181416 89.9644 0.0119972C89.7199 0.00797118 89.4692 0.00313668 89.2248 0.00152793C88.9365 -0.00012207 88.6435 -0.00012207 88.3552 -0.00012207V-1.48203e-05Z" fill="#A6A6A6"/>
<path d="M6.77466 32.2782C6.53023 32.2782 6.2917 32.275 6.04919 32.2693C5.54681 32.2626 5.04561 32.2176 4.54968 32.1348C4.08726 32.0529 3.6393 31.9005 3.22057 31.6828C2.80568 31.4668 2.42727 31.1836 2.09983 30.8441C1.76766 30.5085 1.4911 30.1194 1.28113 29.692C1.06885 29.2618 0.921938 28.8007 0.845514 28.3248C0.762983 27.8134 0.71833 27.2963 0.71194 26.7779C0.706854 26.6039 0.700195 26.0246 0.700195 26.0246V6.96663C0.700195 6.96663 0.707287 6.39622 0.71198 6.22863C0.718098 5.7111 0.762491 5.19479 0.844776 4.68418C0.921341 4.20693 1.06837 3.74452 1.28076 3.31294C1.48996 2.88585 1.76498 2.49638 2.09516 2.15963C2.42496 1.81969 2.80458 1.53505 3.22018 1.3161C3.63794 1.09903 4.08506 0.947753 4.54655 0.867347C5.0441 0.783664 5.54704 0.738421 6.05117 0.731997L6.77505 0.721924H89.2207L89.9532 0.732401C90.4528 0.738506 90.9511 0.783345 91.4441 0.866538C91.9103 0.947953 92.3621 1.10028 92.7846 1.31851C93.6172 1.75976 94.2946 2.45786 94.722 3.31496C94.931 3.74355 95.0758 4.20219 95.1514 4.67532C95.2346 5.19012 95.2812 5.71048 95.2908 6.23226C95.2931 6.4659 95.2931 6.71687 95.2931 6.96663C95.2995 7.276 95.2995 7.57047 95.2995 7.86736V25.1335C95.2995 25.4332 95.2995 25.7257 95.2931 26.0205C95.2931 26.2888 95.2931 26.5346 95.29 26.7875C95.2806 27.3 95.2348 27.8111 95.1529 28.3167C95.078 28.7961 94.9319 29.2607 94.7197 29.6944C94.5082 30.1172 94.2333 30.503 93.9049 30.8376C93.5772 31.179 93.1981 31.4639 92.7823 31.6812C92.3609 31.9007 91.9098 32.0536 91.4441 32.1348C90.9482 32.2181 90.447 32.2631 89.9446 32.2693C89.7096 32.275 89.4635 32.2782 89.2246 32.2782L88.355 32.2798L6.77466 32.2782Z" fill="black"/>
<path d="M19.8706 16.748C19.8792 16.0594 20.0571 15.3843 20.3876 14.7854C20.7182 14.1865 21.1907 13.6833 21.7611 13.3226C21.3987 12.7903 20.9206 12.3523 20.3648 12.0433C19.809 11.7343 19.1908 11.5628 18.5592 11.5425C17.2121 11.3971 15.9061 12.3715 15.2196 12.3715C14.5198 12.3715 13.4628 11.5569 12.3247 11.581C11.5885 11.6055 10.871 11.8256 10.2421 12.22C9.61326 12.6144 9.09446 13.1696 8.73629 13.8315C7.18475 16.594 8.34206 20.6538 9.8283 22.8868C10.5719 23.9802 11.441 25.2016 12.5781 25.1583C13.6909 25.1108 14.1065 24.4286 15.4497 24.4286C16.7804 24.4286 17.1703 25.1583 18.3305 25.1307C19.5246 25.1108 20.2769 24.0324 20.9944 22.9287C21.5287 22.1496 21.9398 21.2885 22.2125 20.3774C21.5188 20.0756 20.9268 19.5706 20.5104 18.9252C20.0939 18.2798 19.8714 17.5226 19.8706 16.748Z" fill="white"/>
<path d="M17.6792 10.074C18.3303 9.27025 18.651 8.23721 18.5734 7.19421C17.5787 7.30165 16.6599 7.79051 16.0001 8.56339C15.6775 8.94097 15.4304 9.38023 15.273 9.85606C15.1155 10.3319 15.0508 10.835 15.0826 11.3365C15.5801 11.3418 16.0722 11.2309 16.522 11.0122C16.9718 10.7935 17.3675 10.4727 17.6792 10.074Z" fill="white"/>
<path d="M33.9368 22.3901H30.1395L29.2275 25.1592H27.6191L31.2159 14.9143H32.887L36.4838 25.1592H34.848L33.9368 22.3901ZM30.5328 21.1123H33.5428L32.0589 16.6183H32.0174L30.5328 21.1123Z" fill="white"/>
<path d="M44.2515 21.4249C44.2515 23.7461 43.0434 25.2373 41.2204 25.2373C40.7585 25.2622 40.2993 25.1528 39.8951 24.9217C39.4909 24.6906 39.1582 24.3471 38.9351 23.9305H38.9006V27.6302H37.4097V17.6899H38.8528V18.9322H38.8802C39.1136 18.5177 39.452 18.176 39.8592 17.9435C40.2665 17.7109 40.7274 17.5963 41.1929 17.6117C43.0363 17.6117 44.2515 19.1103 44.2515 21.4249ZM42.7191 21.4249C42.7191 19.9127 41.9591 18.9185 40.7996 18.9185C39.6605 18.9185 38.8943 19.9337 38.8943 21.4249C38.8943 22.9299 39.6605 23.9378 40.7996 23.9378C41.9591 23.9378 42.7191 22.9509 42.7191 21.4249Z" fill="white"/>
<path d="M52.2461 21.4249C52.2461 23.7461 51.0381 25.2373 49.215 25.2373C48.7532 25.2622 48.2939 25.1528 47.8897 24.9217C47.4856 24.6906 47.1528 24.3471 46.9297 23.9305H46.8952V27.6301H45.4043V17.6899H46.8474V18.9322H46.8748C47.1082 18.5177 47.4466 18.176 47.8538 17.9434C48.2611 17.7109 48.722 17.5963 49.1875 17.6117C51.031 17.6117 52.2461 19.1103 52.2461 21.4249ZM50.7137 21.4249C50.7137 19.9127 49.9538 18.9185 48.7943 18.9185C47.6551 18.9185 46.8889 19.9336 46.8889 21.4249C46.8889 22.9299 47.6551 23.9378 48.7943 23.9378C49.9538 23.9378 50.7137 22.9509 50.7137 21.4249H50.7137Z" fill="white"/>
<path d="M57.5296 22.3047C57.6401 23.3207 58.5998 23.9877 59.9113 23.9877C61.1679 23.9877 62.072 23.3206 62.072 22.4046C62.072 21.6094 61.5267 21.1333 60.2356 20.807L58.9445 20.4871C57.1152 20.0327 56.2659 19.1529 56.2659 17.7253C56.2659 15.9577 57.7638 14.7435 59.8909 14.7435C61.996 14.7435 63.4391 15.9577 63.4877 17.7253H61.9827C61.8926 16.7029 61.0707 16.0858 59.8697 16.0858C58.6687 16.0858 57.8469 16.7102 57.8469 17.619C57.8469 18.3432 58.3718 18.7694 59.6558 19.0957L60.7534 19.3729C62.7974 19.8699 63.6467 20.7143 63.6467 22.2128C63.6467 24.1295 62.1621 25.3299 59.8008 25.3299C57.5915 25.3299 56.0998 24.1577 56.0034 22.3047L57.5296 22.3047Z" fill="white"/>
<path d="M66.8641 15.9222V17.6899H68.2453V18.904H66.8641V23.0218C66.8641 23.6615 67.1406 23.9596 67.7478 23.9596C67.9118 23.9566 68.0755 23.9448 68.2382 23.9241V25.131C67.9653 25.1834 67.6878 25.2072 67.4101 25.2019C65.9396 25.2019 65.3661 24.6339 65.3661 23.1853V18.904H64.3101V17.6899H65.3661V15.9222H66.8641Z" fill="white"/>
<path d="M69.0454 21.4249C69.0454 19.0748 70.3914 17.598 72.4902 17.598C74.5961 17.598 75.9358 19.0748 75.9358 21.4249C75.9358 23.7815 74.6032 25.2518 72.4902 25.2518C70.378 25.2518 69.0454 23.7815 69.0454 21.4249ZM74.4167 21.4249C74.4167 19.8128 73.6983 18.8613 72.4902 18.8613C71.2821 18.8613 70.5645 19.82 70.5645 21.4249C70.5645 23.0435 71.2821 23.9877 72.4902 23.9877C73.6983 23.9877 74.4167 23.0435 74.4167 21.4249H74.4167Z" fill="white"/>
<path d="M77.165 17.6898H78.587V18.9611H78.6215C78.7177 18.5641 78.9439 18.2132 79.2621 17.9674C79.5802 17.7217 79.9709 17.596 80.3686 17.6116C80.5404 17.611 80.7117 17.6302 80.8794 17.6689V19.1029C80.6625 19.0348 80.4362 19.0035 80.2095 19.0103C79.9929 19.0013 79.777 19.0405 79.5765 19.1254C79.3761 19.2103 79.1959 19.3388 79.0483 19.502C78.9007 19.6653 78.7892 19.8595 78.7215 20.0712C78.6538 20.283 78.6314 20.5073 78.6559 20.7288V25.1591H77.165L77.165 17.6898Z" fill="white"/>
<path d="M87.7531 22.9654C87.5525 24.3213 86.2685 25.2518 84.6256 25.2518C82.5127 25.2518 81.2012 23.796 81.2012 21.4604C81.2012 19.1175 82.5197 17.598 84.5629 17.598C86.5725 17.598 87.8362 19.0176 87.8362 21.2823V21.8076H82.7062V21.9003C82.6825 22.1752 82.716 22.4521 82.8043 22.7126C82.8927 22.9732 83.034 23.2115 83.2188 23.4116C83.4036 23.6117 83.6277 23.769 83.8762 23.8732C84.1247 23.9774 84.3919 24.0261 84.6601 24.0159C85.0124 24.0499 85.3659 23.966 85.6682 23.7767C85.9704 23.5874 86.2051 23.3028 86.3374 22.9653L87.7531 22.9654ZM82.7132 20.7361H86.3445C86.3579 20.4889 86.3214 20.2416 86.2374 20.0096C86.1535 19.7776 86.0238 19.5659 85.8565 19.3879C85.6892 19.2099 85.4879 19.0694 85.2653 18.9752C85.0427 18.8809 84.8036 18.835 84.5629 18.8404C84.3201 18.8389 84.0795 18.8868 83.8548 18.9815C83.6301 19.0762 83.4259 19.2156 83.254 19.3919C83.082 19.5681 82.9457 19.7777 82.8529 20.0084C82.7601 20.2391 82.7126 20.4864 82.7132 20.7361V20.7361Z" fill="white"/>
<path d="M29.4732 9.2841H30.1133C30.2235 9.29821 30.3353 9.28869 30.4418 9.25615C30.5482 9.22361 30.6469 9.16875 30.7317 9.09502C30.8165 9.0213 30.8855 8.93031 30.9344 8.8278C30.9833 8.72528 31.011 8.61346 31.0158 8.49938C31.0158 8.04539 30.6836 7.75213 30.1204 7.75213C30.0075 7.73591 29.8926 7.74311 29.7824 7.77331C29.6723 7.80351 29.5692 7.8561 29.4791 7.92797C29.3891 7.99984 29.3139 8.08954 29.2582 8.19176C29.2024 8.29399 29.1671 8.40667 29.1544 8.52315H28.4516C28.4637 8.3117 28.518 8.10508 28.6111 7.91614C28.7042 7.72721 28.8342 7.56001 28.9928 7.42495C29.1515 7.2899 29.3355 7.18988 29.5334 7.13112C29.7313 7.07236 29.9388 7.05613 30.1431 7.08342C31.0855 7.08342 31.7492 7.62604 31.7492 8.40713C31.7514 8.6688 31.6662 8.92334 31.508 9.12825C31.3497 9.33315 31.1279 9.47604 30.8795 9.53305V9.59105C31.1739 9.60448 31.4512 9.73724 31.6507 9.9603C31.8502 10.1834 31.9558 10.4786 31.9442 10.7814C31.9224 10.9991 31.8586 11.2102 31.7565 11.4022C31.6543 11.5942 31.516 11.7633 31.3494 11.8996C31.1829 12.0359 30.9916 12.1367 30.7868 12.196C30.5819 12.2553 30.3676 12.2719 30.1564 12.2449C29.9448 12.2746 29.7295 12.2601 29.5234 12.2024C29.3173 12.1447 29.1246 12.0449 28.9568 11.909C28.789 11.773 28.6496 11.6038 28.5468 11.4112C28.4439 11.2187 28.3799 11.0068 28.3584 10.7883H29.0721C29.1152 11.2592 29.5359 11.563 30.1564 11.563C30.7769 11.563 31.1819 11.2218 31.1819 10.7408C31.1819 10.2529 30.8004 9.95243 30.1337 9.95243H29.4732V9.2841Z" fill="white"/>
<path d="M32.7549 11.075C32.7549 10.4063 33.2398 10.0208 34.0985 9.96602L35.077 9.90802V9.58736C35.077 9.195 34.8255 8.97345 34.3374 8.97345C33.9395 8.97345 33.6645 9.1237 33.5846 9.38635H32.8943C32.9672 8.74826 33.5517 8.33899 34.3711 8.33899C35.2768 8.33899 35.7876 8.80264 35.7876 9.58736V12.1256H35.1005V11.6035H35.0441C34.9296 11.7908 34.7688 11.9435 34.5782 12.0459C34.3876 12.1484 34.1739 12.197 33.959 12.1868C33.8074 12.203 33.6541 12.1864 33.5091 12.138C33.3641 12.0895 33.2305 12.0104 33.1171 11.9057C33.0036 11.8009 32.9128 11.6729 32.8504 11.5298C32.788 11.3867 32.7555 11.2318 32.7549 11.075ZM35.077 10.7576V10.447L34.1948 10.505C33.6973 10.5392 33.4717 10.7133 33.4717 11.0408C33.4717 11.3751 33.7537 11.5697 34.1416 11.5697C34.2552 11.5815 34.37 11.5697 34.4791 11.535C34.5882 11.5003 34.6894 11.4433 34.7767 11.3676C34.864 11.2918 34.9356 11.1988 34.9871 11.094C35.0387 10.9892 35.0693 10.8748 35.077 10.7576Z" fill="white"/>
<path d="M37.6797 9.02791V12.1257H36.9668V8.41077H39.3454V9.02787L37.6797 9.02791Z" fill="white"/>
<path d="M43.666 10.2666C43.666 11.4469 43.0855 12.1869 42.1735 12.1869C41.9497 12.2026 41.7261 12.1523 41.5292 12.0417C41.3322 11.9312 41.1701 11.765 41.0618 11.5629H41.0054V13.3608H40.2925V8.41076H40.9788V9.0247H41.0321C41.1422 8.81551 41.3065 8.64172 41.5067 8.5225C41.7069 8.40328 41.9352 8.34329 42.1665 8.34915C43.0855 8.34912 43.666 9.0859 43.666 10.2666ZM42.9327 10.2666C42.9327 9.48189 42.5715 9.00775 41.9675 9.00775C41.3674 9.00775 40.9921 9.49195 40.9921 10.2698C40.9921 11.0441 41.3674 11.5287 41.9644 11.5287C42.5715 11.5287 42.9327 11.0545 42.9327 10.2666Z" fill="white"/>
<path d="M44.6158 13.4562V12.825C44.693 12.8351 44.7707 12.8397 44.8485 12.8387C45.0003 12.8503 45.151 12.8038 45.2716 12.7081C45.3922 12.6124 45.4742 12.4743 45.5018 12.3203L45.5551 12.1394L44.2476 8.41077H45.0239L45.9296 11.3615H45.986L46.8886 8.41077H47.6446L46.2979 12.2792C45.9892 13.1831 45.6476 13.4732 44.9112 13.4732C44.8516 13.4732 44.6824 13.4663 44.6158 13.4562Z" fill="white"/>
<path d="M48.1997 11.0715H48.9095C48.9792 11.399 49.2777 11.5698 49.6953 11.5698C50.1701 11.5698 50.4615 11.3547 50.4615 11.0203C50.4615 10.6622 50.1998 10.4914 49.6953 10.4914H49.1547V9.92181H49.6859C50.1168 9.92181 50.3362 9.75142 50.3362 9.44084C50.3362 9.16812 50.1238 8.95986 49.6859 8.95986C49.2871 8.95986 48.9957 9.13389 48.9494 9.42715H48.2624C48.3138 9.09017 48.4917 8.78738 48.7579 8.58391C49.0241 8.38044 49.3573 8.29253 49.6859 8.3391C50.5445 8.3391 51.0358 8.73831 51.0358 9.36592C51.0398 9.54069 50.9853 9.71158 50.8815 9.85002C50.7777 9.98845 50.6308 10.086 50.4654 10.1265V10.1845C50.6623 10.2106 50.8431 10.3101 50.9733 10.4642C51.1036 10.6183 51.1743 10.8162 51.1721 11.0204C51.1721 11.7266 50.5876 12.1938 49.6953 12.1938C48.9064 12.1938 48.2655 11.822 48.1997 11.0715Z" fill="white"/>
<path d="M52.1987 12.1257V8.41077H52.9054V10.9659H52.9618L54.6266 8.41077H55.3333V12.1257H54.6266V9.55684H54.5733L52.9054 12.1257L52.1987 12.1257Z" fill="white"/>
<path d="M59.2267 9.02787H58.0891V12.1256H57.3754V9.02787H56.2378V8.41077H59.2267V9.02787Z" fill="white"/>
<path d="M63.0671 11.1226C62.97 11.4621 62.76 11.7557 62.4737 11.9522C62.1874 12.1486 61.8432 12.2354 61.501 12.1974C61.263 12.2038 61.0265 12.157 60.8079 12.06C60.5893 11.963 60.3938 11.8183 60.235 11.6359C60.0763 11.4534 59.958 11.2377 59.8885 11.0035C59.8189 10.7693 59.7998 10.5224 59.8323 10.2799C59.8006 10.0366 59.8201 9.78917 59.8895 9.55432C59.9589 9.31946 60.0765 9.10268 60.2345 8.91864C60.3924 8.73461 60.5869 8.58762 60.8049 8.48762C61.0229 8.38763 61.2592 8.33696 61.4979 8.33905C62.5031 8.33905 63.1102 9.04525 63.1102 10.2118V10.4676H60.5593V10.5087C60.548 10.6451 60.5646 10.7824 60.608 10.9117C60.6514 11.0411 60.7206 11.1597 60.8112 11.26C60.9018 11.3602 61.0118 11.4398 61.1341 11.4937C61.2564 11.5476 61.3883 11.5746 61.5214 11.573C61.6918 11.5939 61.8645 11.5623 62.0174 11.4821C62.1703 11.4019 62.2965 11.2768 62.3801 11.1226L63.0671 11.1226ZM60.5593 9.92541H62.3832C62.3922 9.80079 62.3757 9.67562 62.3349 9.55792C62.2941 9.44022 62.2298 9.3326 62.1461 9.24198C62.0625 9.15135 61.9613 9.07972 61.8491 9.03168C61.7369 8.98365 61.6162 8.96027 61.4948 8.96305C61.3714 8.96132 61.249 8.98504 61.1347 9.0328C61.0204 9.08055 60.9166 9.15138 60.8294 9.2411C60.7422 9.33081 60.6734 9.43759 60.627 9.55513C60.5806 9.67267 60.5576 9.79857 60.5593 9.92541H60.5593Z" fill="white"/>
<path d="M66.0894 8.41077H67.7181C68.4248 8.41077 68.8393 8.77896 68.8393 9.35539C68.8404 9.5383 68.7803 9.71605 68.6692 9.85889C68.5581 10.0017 68.4027 10.101 68.2289 10.1401V10.1981C68.4399 10.2118 68.6377 10.3083 68.7815 10.4677C68.9252 10.6271 69.004 10.8372 69.0014 11.0545C69.0014 11.7027 68.5274 12.1257 67.7346 12.1257H66.0894V8.41077ZM66.796 8.97352V9.93547H67.5027C67.9336 9.93547 68.1396 9.76508 68.1396 9.45087C68.1396 9.16124 67.9602 8.97352 67.5818 8.97352L66.796 8.97352ZM66.796 10.4745V11.5629H67.6414C68.0629 11.5629 68.2885 11.3716 68.2885 11.0203C68.2885 10.6485 68.0331 10.4745 67.5521 10.4745L66.796 10.4745Z" fill="white"/>
</g>
<defs>
<clipPath id="clip0_83_1765">
<rect width="96" height="33" fill="white"/>
</clipPath>
</defs>
</svg>
